# Blender v2.79 (sub 0) OBJ File: ''
# www.blender.org
g Cube_BenchMesh
v 1.244363 -1.000000 -2.049949
v 1.244363 -1.000000 2.049950
v -1.000000 1.274898 2.049949
v -1.000000 1.274898 -2.049949
v -1.000000 -0.205009 2.049949
v -0.205009 -1.000000 2.049949
v -0.997549 -0.267383 2.049949
v -0.990213 -0.329373 2.049949
v -0.978034 -0.390596 2.049949
v -0.961091 -0.450675 2.049949
v -0.939485 -0.509239 2.049949
v -0.913351 -0.565927 2.049949
v -0.882850 -0.620391 2.049949
v -0.848170 -0.672293 2.049949
v -0.809525 -0.721314 2.049949
v -0.767153 -0.767153 2.049949
v -0.721314 -0.809525 2.049949
v -0.672293 -0.848170 2.049949
v -0.620391 -0.882850 2.049949
v -0.565928 -0.913351 2.049949
v -0.509239 -0.939485 2.049949
v -0.450675 -0.961090 2.049949
v -0.390596 -0.978034 2.049949
v -0.329373 -0.990212 2.049949
v -0.267383 -0.997549 2.049949
v -0.205009 -1.000000 -2.049950
v -1.000000 -0.205009 -2.049950
v -0.267383 -0.997549 -2.049950
v -0.329373 -0.990212 -2.049950
v -0.390596 -0.978034 -2.049950
v -0.450674 -0.961090 -2.049950
v -0.509239 -0.939485 -2.049950
v -0.565927 -0.913351 -2.049950
v -0.620390 -0.882850 -2.049950
v -0.672293 -0.848170 -2.049950
v -0.721314 -0.809525 -2.049950
v -0.767152 -0.767153 -2.049950
v -0.809525 -0.721314 -2.049950
v -0.848170 -0.672293 -2.049950
v -0.882850 -0.620391 -2.049950
v -0.913351 -0.565928 -2.049950
v -0.939485 -0.509239 -2.049950
v -0.961090 -0.450675 -2.049950
v -0.978034 -0.390596 -2.049950
v -0.990212 -0.329373 -2.049950
v -0.997549 -0.267383 -2.049950
vt 1.000000 0.644914
vt 0.000000 0.644914
vt 0.000000 1.000000
vt 1.000000 1.000000
vt 0.000000 0.000000
vt 0.000000 0.347759
vt 1.000000 0.347759
vt 1.000000 0.000000
vt 1.000000 0.629804
vt 0.000000 0.629804
vt 1.000000 0.614499
vt 0.000000 0.614499
vt 1.000000 0.599093
vt 0.000000 0.599093
vt 1.000000 0.583681
vt 0.000000 0.583681
vt 1.000000 0.568358
vt 0.000000 0.568358
vt 1.000000 0.553219
vt 0.000000 0.553219
vt 1.000000 0.538357
vt 0.000000 0.538357
vt 1.000000 0.523863
vt 0.000000 0.523863
vt 1.000000 0.509828
vt 0.000000 0.509828
vt 1.000000 0.496337
vt 0.000000 0.496337
vt 1.000000 0.482846
vt 0.000000 0.482846
vt 1.000000 0.468810
vt 0.000000 0.468810
vt 1.000000 0.454317
vt 0.000000 0.454317
vt 1.000000 0.439454
vt 0.000000 0.439455
vt 1.000000 0.424315
vt 0.000000 0.424315
vt 1.000000 0.408993
vt 0.000000 0.408993
vt 1.000000 0.393581
vt 0.000000 0.393581
vt 1.000000 0.378175
vt 0.000000 0.378175
vt 1.000000 0.362869
vt 0.000000 0.362869
vn 0.9998 0.0196 0.0000
vn 1.0000 0.0000 0.0000
vn 0.0000 1.0000 0.0000
vn 0.0196 0.9998 0.0000
vn 0.9969 0.0784 0.0000
vn 0.9877 0.1564 0.0000
vn 0.9724 0.2334 0.0000
vn 0.9510 0.3090 0.0000
vn 0.9239 0.3827 0.0000
vn 0.8910 0.4540 0.0000
vn 0.8526 0.5225 0.0000
vn 0.8090 0.5878 0.0000
vn 0.7604 0.6494 0.0000
vn 0.7071 0.7071 0.0000
vn 0.6494 0.7604 0.0000
vn 0.5878 0.8090 0.0000
vn 0.5225 0.8526 0.0000
vn 0.4540 0.8910 0.0000
vn 0.3827 0.9239 0.0000
vn 0.3090 0.9510 0.0000
vn 0.2334 0.9724 0.0000
vn 0.1564 0.9877 0.0000
vn 0.0784 0.9969 0.0000
s 1
f 5/1/1 27/2/1 4/3/2 3/4/2
f 1/5/3 26/6/4 6/7/4 2/8/3
f 5/1/1 7/9/5 46/10/5 27/2/1
f 7/9/5 8/11/6 45/12/6 46/10/5
f 8/11/6 9/13/7 44/14/7 45/12/6
f 9/13/7 10/15/8 43/16/8 44/14/7
f 10/15/8 11/17/9 42/18/9 43/16/8
f 11/17/9 12/19/10 41/20/10 42/18/9
f 12/19/10 13/21/11 40/22/11 41/20/10
f 13/21/11 14/23/12 39/24/12 40/22/11
f 14/23/12 15/25/13 38/26/13 39/24/12
f 15/25/13 16/27/14 37/28/14 38/26/13
f 16/27/14 17/29/15 36/30/15 37/28/14
f 17/29/15 18/31/16 35/32/16 36/30/15
f 18/31/16 19/33/17 34/34/17 35/32/16
f 19/33/17 20/35/18 33/36/18 34/34/17
f 20/35/18 21/37/19 32/38/19 33/36/18
f 21/37/19 22/39/20 31/40/20 32/38/19
f 22/39/20 23/41/21 30/42/21 31/40/20
f 23/41/21 24/43/22 29/44/22 30/42/21
f 24/43/22 25/45/23 28/46/23 29/44/22
f 25/45/23 6/7/4 26/6/4 28/46/23
